<?xml version="1.0" encoding="UTF-8"?>
<svg width="1149px" height="1619px" viewBox="0 0 1149 1619" version="1.1" xmlns="http://www.w3.org/2000/svg" xmlns:xlink="http://www.w3.org/1999/xlink" style="background: #FFFFFF;">
    <title>Slice</title>
    <g id="Page-1" stroke="none" stroke-width="1" fill="none" fill-rule="evenodd">
        <polyline id="Path" stroke="#979797" stroke-width="4" points="40.9073321 295.163159 203.426516 295.163159 174.717778 323.871897 225.949606 323.871897 225.949606 295.163159 395 295.163159"></polyline>
        <polyline id="Path-Copy" stroke="#979797" stroke-width="4" transform="translate(536.954680, 309.354369) scale(-1, 1) translate(-536.954680, -309.354369) " points="395 295 557.519184 295 528.810446 323.708738 580.042274 323.708738 580.042274 295 678.90936 295"></polyline>
        <line x1="226.5" y1="285.5" x2="226.5" y2="209.5" id="Line" stroke="#979797" stroke-linecap="square"></line>
        <line x1="494.5" y1="285.5" x2="494.5" y2="209.5" id="Line-2" stroke="#979797" stroke-linecap="square"></line>
        <path id="Line-3" d="M486.809343,230.319082 L487.245131,230.564212 L495.245131,235.064212 L496.019864,235.5 L495.245131,235.935788 L487.245131,240.435788 L486.809343,240.680918 L486.319082,239.809343 L486.754869,239.564212 L493.091,236 L227.908,236 L234.245131,239.564212 L234.680918,239.809343 L234.190657,240.680918 L233.754869,240.435788 L225.754869,235.935788 L224.980136,235.5 L225.754869,235.064212 L233.754869,230.564212 L234.190657,230.319082 L234.680918,231.190657 L234.245131,231.435788 L227.908,235 L493.091,235 L486.754869,231.435788 L486.319082,231.190657 L486.809343,230.319082 Z" fill="#979797" fill-rule="nonzero"></path>
        <text id="122mm" font-family="Menlo-Bold, Menlo" font-size="31" font-weight="bold" fill="#979797">
            <tspan x="313.341064" y="229">122mm</tspan>
        </text>
        <polyline id="Path-2" stroke="#979797" stroke-width="4" points="184.538403 499.459739 313 499.459739 226.5 585.959739 369 585.959739 369 499.459739 478.005902 499.459739"></polyline>
        <line x1="313.5" y1="490.5" x2="313.5" y2="400.5" id="Line-4" stroke="#979797" stroke-linecap="square"></line>
        <line x1="369.5" y1="490.5" x2="369.5" y2="400.5" id="Line-5" stroke="#979797" stroke-linecap="square"></line>
        <path id="Line-6" d="M361.809343,407.319082 L362.245131,407.564212 L370.245131,412.064212 L371.019864,412.5 L370.245131,412.935788 L362.245131,417.435788 L361.809343,417.680918 L361.319082,416.809343 L361.754869,416.564212 L368.089,413 L314.908,413 L321.245131,416.564212 L321.680918,416.809343 L321.190657,417.680918 L320.754869,417.435788 L312.754869,412.935788 L311.980136,412.5 L312.754869,412.064212 L320.754869,407.564212 L321.190657,407.319082 L321.680918,408.190657 L321.245131,408.435788 L314.908,412 L368.093,412 L361.754869,408.435788 L361.319082,408.190657 L361.809343,407.319082 Z" fill="#979797" fill-rule="nonzero"></path>
        <text id="3.15mm" font-family="Menlo-Bold, Menlo" font-size="31" font-weight="bold" fill="#979797">
            <tspan x="286.009277" y="390">3.15mm</tspan>
        </text>
        <line x1="226.5" y1="595.5" x2="226.5" y2="688.5" id="Line-7" stroke="#979797" stroke-linecap="square"></line>
        <line x1="369.5" y1="595.5" x2="369.5" y2="688.5" id="Line-8" stroke="#979797" stroke-linecap="square"></line>
        <path id="Line-9" d="M361.809343,671.319082 L362.245131,671.564212 L370.245131,676.064212 L371.019864,676.5 L370.245131,676.935788 L362.245131,681.435788 L361.809343,681.680918 L361.319082,680.809343 L361.754869,680.564212 L368.091,677 L227.908,677 L234.245131,680.564212 L234.680918,680.809343 L234.190657,681.680918 L233.754869,681.435788 L225.754869,676.935788 L224.980136,676.5 L225.754869,676.064212 L233.754869,671.564212 L234.190657,671.319082 L234.680918,672.190657 L234.245131,672.435788 L227.908,676 L368.091,676 L361.754869,672.435788 L361.319082,672.190657 L361.809343,671.319082 Z" fill="#979797" fill-rule="nonzero"></path>
        <text id="8.15mm" font-family="Menlo-Bold, Menlo" font-size="31" font-weight="bold" fill="#979797">
            <tspan x="242.009277" y="721">8.15mm</tspan>
        </text>
        <line x1="377.5" y1="585.5" x2="557.5" y2="585.5" id="Line-10" stroke="#979797" stroke-linecap="square"></line>
        <line x1="485.5" y1="499.5" x2="557.5" y2="499.5" id="Line-11" stroke="#979797" stroke-linecap="square"></line>
        <path id="Line-12" d="M544.5,497.980136 L544.935788,498.754869 L549.435788,506.754869 L549.680918,507.190657 L548.809343,507.680918 L548.564212,507.245131 L545,500.908 L545,584.091 L548.564212,577.754869 L548.809343,577.319082 L549.680918,577.809343 L549.435788,578.245131 L544.935788,586.245131 L544.5,587.019864 L544.064212,586.245131 L539.564212,578.245131 L539.319082,577.809343 L540.190657,577.319082 L540.435788,577.754869 L544,584.091 L544,500.908 L540.435788,507.245131 L540.190657,507.680918 L539.319082,507.190657 L539.564212,506.754869 L544.064212,498.754869 L544.5,497.980136 Z" fill="#979797" fill-rule="nonzero"></path>
        <text id="5.24mm" font-family="Menlo-Bold, Menlo" font-size="31" font-weight="bold" fill="#979797">
            <tspan x="558.009277" y="554">5.24mm</tspan>
        </text>
        <path d="M307.076009,585.5 C307.076009,560.071492 297.153423,543.17511 277.308252,534.810855" id="Path-3" stroke="#979797"></path>
        <text id="45°" font-family="Menlo-Bold, Menlo" font-size="31" font-weight="bold" fill="#979797">
            <tspan x="251.004639" y="579">45°</tspan>
        </text>
        <text id="TOP-VIEW" font-family="Menlo-Bold, Menlo" font-size="48" font-weight="bold" fill="#979797">
            <tspan x="41.40625" y="73">TOP VIEW</tspan>
        </text>
        <text id="BACK-VIEW" font-family="Menlo-Bold, Menlo" font-size="48" font-weight="bold" fill="#979797">
            <tspan x="41" y="859">BACK VIEW</tspan>
        </text>
        <rect id="Rectangle" stroke="#979797" stroke-width="4" x="41" y="999" width="850" height="489"></rect>
        <ellipse id="Oval" stroke="#979797" stroke-width="3" cx="466" cy="1372.5" rx="7" ry="6.5"></ellipse>
        <rect id="Rectangle" stroke="#979797" stroke-width="3" x="185" y="999" width="18" height="403"></rect>
        <rect id="Rectangle" stroke="#979797" stroke-width="3" x="729" y="999" width="18" height="403"></rect>
        <line x1="203.5" y1="993.5" x2="203.5" y2="906.5" id="Line-13" stroke="#979797" stroke-linecap="square"></line>
        <path id="Line-26" d="M883.809343,935.319082 L884.245131,935.564212 L892.245131,940.064212 L893.019864,940.5 L892.245131,940.935788 L884.245131,945.435788 L883.809343,945.680918 L883.319082,944.809343 L883.754869,944.564212 L890.091,941 L730.908,941 L737.245131,944.564212 L737.680918,944.809343 L737.190657,945.680918 L736.754869,945.435788 L728.754869,940.935788 L727.980136,940.5 L728.754869,940.064212 L736.754869,935.564212 L737.190657,935.319082 L737.680918,936.190657 L737.245131,936.435788 L730.908,940 L890.091,940 L883.754869,936.435788 L883.319082,936.190657 L883.809343,935.319082 Z" fill="#979797" fill-rule="nonzero"></path>
        <line x1="729.5" y1="993.5" x2="729.5" y2="906.5" id="Line-14" stroke="#979797" stroke-linecap="square"></line>
        <path id="Line-15" d="M721.770168,935.377714 L722.207807,935.619523 L730.241795,940.058559 L731.01982,940.488442 L730.248423,940.930109 L722.282874,945.490814 L721.848963,945.739251 L721.352088,944.871429 L721.785999,944.622991 L728.095,941.01 L722.011303,941.056963 L210.996301,944.943008 L204.912,944.989 L211.275812,948.505198 L211.713452,948.747008 L211.229832,949.622286 L210.792193,949.380477 L202.758205,944.941441 L201.98018,944.511558 L202.751577,944.069891 L210.717126,939.509186 L211.151037,939.260749 L211.647912,940.128571 L211.214001,940.377009 L204.904,943.989 L210.988697,943.943037 L722.003699,940.056992 L728.087,940.01 L721.724188,936.494802 L721.286548,936.252992 L721.770168,935.377714 Z" fill="#979797" fill-rule="nonzero"></path>
        <text id="122mm" font-family="Menlo-Bold, Menlo" font-size="31" font-weight="bold" fill="#979797">
            <tspan x="412.341064" y="918">122mm</tspan>
        </text>
        <text id="24mm" font-family="Menlo-Bold, Menlo" font-size="31" font-weight="bold" fill="#979797">
            <tspan x="773.172852" y="918">24mm</tspan>
        </text>
        <path id="Line-26" d="M195.809343,939.319082 L196.245131,939.564212 L204.245131,944.064212 L205.019864,944.5 L204.245131,944.935788 L196.245131,949.435788 L195.809343,949.680918 L195.319082,948.809343 L195.754869,948.564212 L202.089,945 L42.91,945 L49.2451306,948.564212 L49.6809184,948.809343 L49.1906571,949.680918 L48.7548694,949.435788 L40.7548694,944.935788 L39.9801356,944.5 L40.7548694,944.064212 L48.7548694,939.564212 L49.1906571,939.319082 L49.6809184,940.190657 L49.2451306,940.435788 L42.906,944 L202.093,944 L195.754869,940.435788 L195.319082,940.190657 L195.809343,939.319082 Z" fill="#979797" fill-rule="nonzero"></path>
        <line x1="41.5" y1="993.5" x2="41.5" y2="906.5" id="Line-14" stroke="#979797" stroke-linecap="square"></line>
        <text id="24mm" font-family="Menlo-Bold, Menlo" font-size="31" font-weight="bold" fill="#979797">
            <tspan x="85.1728516" y="922">24mm</tspan>
        </text>
        <line x1="913.5" y1="999.5" x2="1008.5" y2="999.5" id="Line-16" stroke="#979797" stroke-linecap="square"></line>
        <line x1="759.5" y1="1402.5" x2="1008.5" y2="1402.5" id="Line-17" stroke="#979797" stroke-linecap="square"></line>
        <path id="Line-18" d="M961.5,997.980136 L961.935788,998.754869 L966.435788,1006.75487 L966.680918,1007.19066 L965.809343,1007.68092 L965.564212,1007.24513 L962,1000.908 L962,1401.091 L965.564212,1394.75487 L965.809343,1394.31908 L966.680918,1394.80934 L966.435788,1395.24513 L961.935788,1403.24513 L961.5,1404.01986 L961.064212,1403.24513 L956.564212,1395.24513 L956.319082,1394.80934 L957.190657,1394.31908 L957.435788,1394.75487 L961,1401.091 L961,1000.908 L957.435788,1007.24513 L957.190657,1007.68092 L956.319082,1007.19066 L956.564212,1006.75487 L961.064212,998.754869 L961.5,997.980136 Z" fill="#979797" fill-rule="nonzero"></path>
        <text id="90mm" font-family="Menlo-Bold, Menlo" font-size="31" font-weight="bold" fill="#979797">
            <tspan x="971.172852" y="1230">90mm</tspan>
        </text>
        <text id="19.25mm" font-family="Menlo-Bold, Menlo" font-size="31" font-weight="bold" fill="#979797">
            <tspan x="971.17749" y="1457">19.25mm</tspan>
        </text>
        <text id="25mm" font-family="Menlo-Bold, Menlo" font-size="31" font-weight="bold" fill="#979797">
            <tspan x="536.172852" y="1442">25mm</tspan>
        </text>
        <text id="85mm" font-family="Menlo-Bold, Menlo" font-size="31" font-weight="bold" fill="#979797">
            <tspan x="642.172852" y="1576">85mm</tspan>
        </text>
        <line x1="906.5" y1="1488.5" x2="1008.5" y2="1488.5" id="Line-19" stroke="#979797" stroke-linecap="square"></line>
        <path id="Line-20" d="M961.5,1400.98014 L961.935788,1401.75487 L966.435788,1409.75487 L966.680918,1410.19066 L965.809343,1410.68092 L965.564212,1410.24513 L962,1403.908 L962,1487.091 L965.564212,1480.75487 L965.809343,1480.31908 L966.680918,1480.80934 L966.435788,1481.24513 L961.935788,1489.24513 L961.5,1490.01986 L961.064212,1489.24513 L956.564212,1481.24513 L956.319082,1480.80934 L957.190657,1480.31908 L957.435788,1480.75487 L961,1487.091 L961,1403.908 L957.435788,1410.24513 L957.190657,1410.68092 L956.319082,1410.19066 L956.564212,1409.75487 L961.064212,1401.75487 L961.5,1400.98014 Z" fill="#979797" fill-rule="nonzero"></path>
        <line x1="466.5" y1="1372.5" x2="557.5" y2="1372.5" id="Line-21" stroke="#979797" stroke-linecap="square"></line>
        <path id="Line-22" d="M526.5,1370.98014 L526.935788,1371.75487 L531.435788,1379.75487 L531.680918,1380.19066 L530.809343,1380.68092 L530.564212,1380.24513 L527,1373.908 L527,1487.091 L530.564212,1480.75487 L530.809343,1480.31908 L531.680918,1480.80934 L531.435788,1481.24513 L526.935788,1489.24513 L526.5,1490.01986 L526.064212,1489.24513 L521.564212,1481.24513 L521.319082,1480.80934 L522.190657,1480.31908 L522.435788,1480.75487 L526,1487.091 L526,1373.908 L522.435788,1380.24513 L522.190657,1380.68092 L521.319082,1380.19066 L521.564212,1379.75487 L526.064212,1371.75487 L526.5,1370.98014 Z" fill="#979797" fill-rule="nonzero"></path>
        <line x1="470.5" y1="1376.5" x2="432.5" y2="1339.5" id="Line-23" stroke="#979797" stroke-linecap="square"></line>
        <path id="Line-23" d="M471.39665,1376.45472 L472.258781,1376.67118 L481.161254,1378.90635 L481.646202,1379.02811 L481.402687,1379.998 L480.917739,1379.87625 L473.866,1378.105 L478.271194,1382.2787 L491.843872,1395.13702 L492.206849,1395.4809 L491.519104,1396.20685 L491.156128,1395.86298 L477.58345,1383.00465 L473.178,1378.831 L475.327458,1385.7771 L475.475232,1386.25476 L474.519904,1386.55031 L474.37213,1386.07265 L471.65936,1377.3039 L471.39665,1376.45472 Z" fill="#979797" fill-rule="nonzero"></path>
        <path id="Line-23" d="M425.7894,1331.97866 L426.147636,1332.32746 L454.484214,1359.91834 L458.839,1364.158 L456.786099,1357.18498 L456.644877,1356.70533 L457.604161,1356.42289 L457.745383,1356.90253 L460.337877,1365.70759 L460.588939,1366.56028 L459.729852,1366.33204 L450.858807,1363.97523 L450.375571,1363.84685 L450.632338,1362.88037 L451.115575,1363.00876 L458.141,1364.875 L453.786597,1360.63481 L425.450019,1333.04394 L425.091783,1332.69513 L425.7894,1331.97866 Z" fill="#979797" fill-rule="nonzero"></path>
        <line x1="425.5" y1="1332.5" x2="332.5" y2="1332.5" id="Line-24" stroke="#979797" stroke-linecap="square"></line>
        <text id="3.1mm" font-family="Menlo-Bold, Menlo" font-size="31" font-weight="bold" fill="#979797">
            <tspan x="332.341064" y="1325">3.1mm</tspan>
        </text>
        <line x1="891.5" y1="993.5" x2="891.5" y2="906.5" id="Line-25" stroke="#979797" stroke-linecap="square"></line>
        <line x1="466.5" y1="1372.5" x2="466.5" y2="1567.5" id="Line-27" stroke="#979797" stroke-linecap="square"></line>
        <line x1="891.5" y1="1502.5" x2="891.5" y2="1567.5" id="Line-28" stroke="#979797" stroke-linecap="square"></line>
        <path id="Line-29" d="M883.809343,1530.31908 L884.245131,1530.56421 L892.245131,1535.06421 L893.019864,1535.5 L892.245131,1535.93579 L884.245131,1540.43579 L883.809343,1540.68092 L883.319082,1539.80934 L883.754869,1539.56421 L890.091,1536 L467.908,1536 L474.245131,1539.56421 L474.680918,1539.80934 L474.190657,1540.68092 L473.754869,1540.43579 L465.754869,1535.93579 L464.980136,1535.5 L465.754869,1535.06421 L473.754869,1530.56421 L474.190657,1530.31908 L474.680918,1531.19066 L474.245131,1531.43579 L467.908,1535 L890.091,1535 L883.754869,1531.43579 L883.319082,1531.19066 L883.809343,1530.31908 Z" fill="#979797" fill-rule="nonzero"></path>
    </g>
</svg>